<svg xmlns="http://www.w3.org/2000/svg" xmlns:xlink="http://www.w3.org/1999/xlink" viewBox="0 0 290 290"><defs><style>.cls-1{fill:none;}.cls-2{isolation:isolate;}.cls-3{clip-path:url(#clip-path);}.cls-4{fill:#fff;}.cls-5{fill:#aa0457;}.cls-6{clip-path:url(#clip-path-2);}.cls-7{fill:#cbff71;}.cls-8{fill:#939393;}.cls-9{fill:#7bcdff;}.cls-10{fill:#b180ff;}.cls-11{fill:#ffb57d;}.cls-12{fill:#f48fff;}.cls-13{fill:#ddbca2;}.cls-14{fill:#ede4d6;}.cls-15{fill:#421f05;}.cls-16{fill:#cc997e;}.cls-17{fill:#00b99b;}.cls-18{fill:#42464b;}.cls-19,.cls-22{opacity:0.16;mix-blend-mode:multiply;}.cls-20,.cls-22{fill:#454950;}.cls-21{fill:url(#Degradado_sin_nombre_39);}.cls-23{fill:#984853;}.cls-24{fill:#a85863;}.cls-25{fill:url(#linear-gradient);}.cls-26{fill:#4c2409;}.cls-27{fill:url(#radial-gradient);}.cls-28{fill:url(#radial-gradient-2);}.cls-29{fill:#3a2d21;}.cls-30{fill:url(#linear-gradient-2);}.cls-31{fill:#cdd0d4;}.cls-32{fill:url(#linear-gradient-3);}</style><clipPath id="clip-path"><circle class="cls-1" cx="-120" cy="145" r="72"/></clipPath><clipPath id="clip-path-2"><circle class="cls-1" cx="145" cy="145" r="139.2"/></clipPath><linearGradient id="Degradado_sin_nombre_39" x1="-1880.72" y1="184.86" x2="-1872.35" y2="141.1" gradientTransform="translate(2012.61)" gradientUnits="userSpaceOnUse"><stop offset="0" stop-color="#00b99b" stop-opacity="0.9"/><stop offset="0.04" stop-color="#00b699" stop-opacity="0.86"/><stop offset="0.5" stop-color="#009585" stop-opacity="0.51"/><stop offset="0.83" stop-color="#008078" stop-opacity="0.29"/><stop offset="1" stop-color="#007873" stop-opacity="0.2"/></linearGradient><linearGradient id="linear-gradient" x1="-1859.72" y1="51.13" x2="-1859.72" y2="60.24" gradientTransform="translate(2012.61)" gradientUnits="userSpaceOnUse"><stop offset="0" stop-color="#cc997e"/><stop offset="0.27" stop-color="#cc997e" stop-opacity="0.91"/><stop offset="0.79" stop-color="#cc997e" stop-opacity="0.69"/><stop offset="1" stop-color="#cc997e" stop-opacity="0.6"/></linearGradient><radialGradient id="radial-gradient" cx="-1944.45" cy="163.99" r="6.12" gradientTransform="translate(2170.53 7.11) rotate(2.61) scale(1.03)" gradientUnits="userSpaceOnUse"><stop offset="0" stop-color="#cc997e" stop-opacity="0.7"/><stop offset="0.17" stop-color="#cc997e" stop-opacity="0.61"/><stop offset="0.49" stop-color="#cc997e" stop-opacity="0.39"/><stop offset="0.95" stop-color="#cc997e" stop-opacity="0.04"/><stop offset="1" stop-color="#cc997e" stop-opacity="0"/></radialGradient><radialGradient id="radial-gradient-2" cx="-1972.16" cy="164" r="6.12" xlink:href="#radial-gradient"/><linearGradient id="linear-gradient-2" x1="-1831.86" y1="77.12" x2="-1827.16" y2="74.48" xlink:href="#linear-gradient"/><linearGradient id="linear-gradient-3" x1="-1858.22" y1="63.03" x2="-1855.86" y2="37.81" gradientTransform="translate(2012.61)" gradientUnits="userSpaceOnUse"><stop offset="0" stop-color="#ede4d6" stop-opacity="0.2"/><stop offset="0.42" stop-color="#ede4d6" stop-opacity="0.13"/><stop offset="1" stop-color="#ede4d6" stop-opacity="0"/></linearGradient></defs><title>well</title><g class="cls-2"><g id="Capa_1" data-name="Capa 1"><g class="cls-3"><path class="cls-4" d="M-22.84,299l-6.06,5.64a22.57,22.57,0,0,0-4.93-5.42h0a13.9,13.9,0,0,1-4.72-5.33l1.46-1.11-2-2.7,1.38-1s-41.48-63.72-55.86-79.34l-.12-.14h0a30.79,30.79,0,0,0-4-3.69h0l-1.22-1-.06,0-1.2-.93-.13-.1-1.15-.86-.17-.12-1.19-.87-.06,0,.25-.37-2-.88h0l0,0-2-1.39-.07,0-.63-.43-.12-.08-.34-.23-.09-.06.26-.16h0l-1.46-4-1.19.13-1.13-9.37c3.65-1.28,6.85-2.74,7.12-3.63.19-.63.24-5.87,0-13.06,7.65-6,8.22-14.46,4.14-16.94a4.72,4.72,0,0,0-.72-.35c5.15-14.35,12-31.12,11.06-40.4h0a11,11,0,0,0-.73-3.12c-5.28-12.41-16.41-6.62-16.41-6.62s3.61-9.35-4.13-7.43-13.67,14.84-13.67,14.84-2.24-1.88-7-1.31-10.79,18.62-10.79,18.62a3.42,3.42,0,0,0-3.53-.9c-.73.2-1.38,1.83-1.47,5h0c0,.53,0,1.12,0,1.73l0,.59c0,.55.06,1.12.12,1.73,0,.16,0,.31,0,.48.08.76.18,1.57.3,2.42,0,.23.08.47.11.71.11.72.24,1.48.39,2.27,0,.23.08.45.13.68.19,1,.42,2,.67,3.12.06.25.12.51.19.77.22.92.46,1.87.73,2.87.08.3.16.59.25.9.34,1.23.71,2.5,1.13,3.84.07.24.16.5.24.74s.21.66.32,1a3.42,3.42,0,0,0-3.28.85c-3.41,3.12-.72,11.56,8.38,16.15.7,6.57,1.52,11.37,2.2,12a8.13,8.13,0,0,0,1.26.87l.12,2.66-3,2,.1.21h0l-.45-.12-.25-.07-.51-.13-.44-.12-.53-.13-.58-.15-.61-.15-.63-.16-.72-.17-.66-.16-.74-.17-.73-.17-.74-.16-.76-.17-.73-.15-.55-.12h0c-.68-.14-1.35-.27-2-.38-25.22-9.45-79.07-41.49-79.07-41.49l-.65,2-3-1.47-.4,1.05a24.27,24.27,0,0,1-4-3.84,6.51,6.51,0,0,0-1.19-3c-1.93-2.69-3.4-3.66-4.58-3.8-1.06-.76-3.43-1-4.29.38a12.36,12.36,0,0,0-1,2.32c-2.08-.06-4.7-1.54-6.33-2.05-5.48-2.44-10.42-4.69-12.45-5.22-2.54-.66-6.95,1.92-4.39,3.82,2,1.45,8.15,4.29,12.58,6.13-.08.38-.16.77-.23,1.17a6.13,6.13,0,0,0-1.42-.16c-1.34.09-3.12,4-1.6,5.19a9.56,9.56,0,0,0,2.33,1.12c0,.39,0,.76-.06,1.12a4.5,4.5,0,0,0-.53-.06c-1.57,0-2.78,3.56-1.4,4.81.64.57,2.83,1.26,5,1.79a21.58,21.58,0,0,0,4.27,2q.6.21,1.23.39h0a17.27,17.27,0,0,0,6.59.58h.36a41,41,0,0,1,5.7,1.89l-.62,1.66,3.24,3-.48,1.4s54.85,43.17,72.77,58.26c-4.5,30-5.77,70.31-5.77,70.31l4-3.87c0,.36-.1.75-.14,1.12-.08.61-.16,1.22-.24,1.86s-.19,1.53-.28,2.33-.16,1.35-.25,2-.19,1.65-.28,2.5c0,.32-.08.61-.11.94h0c-3,26.8-6.28,70.35-7.07,136a.67.67,0,0,0-.28,0c-1.74.43-12.14,7-12.14,7l15.67-1.88a16.82,16.82,0,0,0-2.17-4.45l2-7h0L-136,317.78l8.14,1.86,3,4.11.05-.1,58.17,100.59c-.73,1.91-.49,6.33-.49,6.33l15-1.8s-9.26-4.13-12.64-5.16c-4.09-12.4-20.74-63.47-32-105.41,0-.05-2.84-44.61-3.61-65.14,18.86,15.59,43.72,49.29,43.72,49.29l1.94-1.36,2.53,3.16.92-.69A25.35,25.35,0,0,1-49,308a6.43,6.43,0,0,0-.46,4.26,66,66,0,0,1,1,10.6l-10.71,10,23.53,26,37.84-38Z"/><path class="cls-4" d="M-109.87,93.33c6.24-.75,3,7.64,3,7.64a13.83,13.83,0,0,1,4.37-1.26c3.7-.44,8.9.51,12,7.88a11,11,0,0,1,.73,3.12h0c1,9.28-5.91,26.05-11.06,40.4a4.72,4.72,0,0,1,.72.35c4.08,2.48,3.51,11-4.14,16.94.21,7.19.16,12.43,0,13.06-.27.89-3.47,2.35-7.12,3.63l1.13,9.37,1.19-.13,1.46,4h0l-.26.16.09.06.34.23.12.08.63.43.07,0,2,1.39,0,0h0l2,.88-.25.37.06,0,1.19.87.17.12,1.15.86.13.1,1.2.93.06,0,1.22,1h0a30.79,30.79,0,0,1,4,3.69h0l.12.14c14.38,15.62,55.86,79.34,55.86,79.34l-1.38,1,2,2.7-1.46,1.11a13.9,13.9,0,0,0,4.72,5.33h0a22.57,22.57,0,0,1,4.93,5.42l6.06-5.64L2.22,320.79l-37.84,38-23.53-26,10.71-10a66,66,0,0,0-1-10.6A6.43,6.43,0,0,1-49,308a25.35,25.35,0,0,0-2.26-4.51l-.92.69L-54.68,301l-1.94,1.36s-24.86-33.7-43.72-49.29c.77,20.53,3.6,65.09,3.61,65.14,11.22,41.94,27.87,93,32,105.41,3.38,1,12.64,5.16,12.64,5.16l-15,1.8s-.24-4.42.49-6.33l-58.17-100.59-.05.1-3-4.11-8.14-1.86-33.27,113.77h0l-2,7a16.82,16.82,0,0,1,2.17,4.45l-15.67,1.88s10.4-6.62,12.14-7l.07,0h.21c.79-65.61,4.07-109.16,7.07-136h0c0-.33.07-.62.11-.94.09-.85.19-1.68.28-2.5s.17-1.37.25-2,.19-1.57.28-2.33.16-1.25.24-1.86c0-.37.09-.76.14-1.12l-4,3.87s1.27-40.35,5.77-70.31c-17.92-15.09-72.77-58.26-72.77-58.26l.48-1.4-3.24-3,.62-1.66a41,41,0,0,0-5.7-1.89h-.36a17.27,17.27,0,0,1-6.59-.58h0q-.63-.18-1.23-.39a21.58,21.58,0,0,1-4.27-2c-2.14-.53-4.33-1.22-5-1.79-1.35-1.22-.23-4.62,1.28-4.8h.12a4.5,4.5,0,0,1,.53.06c0-.36,0-.73.06-1.12a9.56,9.56,0,0,1-2.33-1.12c-1.51-1.14.23-5,1.56-5.19h0a6.13,6.13,0,0,1,1.42.16c.07-.4.15-.79.23-1.17-4.43-1.84-10.61-4.68-12.58-6.13s.52-3.6,2.94-3.89a4.08,4.08,0,0,1,1.45.07c2,.53,7,2.78,12.45,5.22,1.63.51,4.25,2,6.33,2.05a12.36,12.36,0,0,1,1-2.32,2.31,2.31,0,0,1,1.72-1,4,4,0,0,1,2.57.58c1.18.14,2.65,1.11,4.58,3.8a6.51,6.51,0,0,1,1.19,3,24.27,24.27,0,0,0,4,3.84l.4-1.05,3,1.47.65-2s53.85,32,79.07,41.49c.64.11,1.31.24,2,.38h0l.55.12.73.15.76.17.74.16.73.17.74.17.66.16.72.17.63.16.61.15.58.15.53.13.44.12.51.13.25.07.45.12h0l-.1-.21,3-2-.12-2.66a8.13,8.13,0,0,1-1.26-.87c-.68-.59-1.5-5.39-2.2-12-9.1-4.59-11.79-13-8.38-16.15a3.5,3.5,0,0,1,2-.94,3.93,3.93,0,0,1,1.32.09c-.11-.33-.22-.66-.32-1s-.17-.5-.24-.74c-.42-1.34-.79-2.61-1.13-3.84-.09-.31-.17-.6-.25-.9-.27-1-.51-1.95-.73-2.87-.07-.26-.13-.52-.19-.77-.25-1.09-.48-2.13-.67-3.12-.05-.23-.09-.45-.13-.68-.15-.79-.28-1.55-.39-2.27,0-.24-.07-.48-.11-.71-.12-.85-.22-1.66-.3-2.42,0-.17,0-.32,0-.48-.06-.61-.1-1.18-.12-1.73l0-.59c0-.61,0-1.2,0-1.73h0c.09-3.18.74-4.81,1.47-5a4.79,4.79,0,0,1,.6-.11,3.33,3.33,0,0,1,2.93,1s6.05-18,10.79-18.62,7,1.31,7,1.31,5.93-12.92,13.67-14.84a9.16,9.16,0,0,1,1.13-.21m-.78-6.48a16,16,0,0,0-1.92.35c-7,1.73-12.24,8.42-15.28,13.35a19.59,19.59,0,0,0-4.58,0c-2.2.26-7.74.92-14.27,17.69-.31,0-.62.12-.93.2-4,1.06-6.16,4.8-6.34,11.14,0,.64,0,1.35,0,2.1,0,.2,0,.42,0,.63,0,.7.08,1.36.14,2.07v.12l0,.42q.12,1.28.33,2.7l.09.57,0,.21c.12.79.26,1.62.42,2.48l0,.22.1.52c.21,1.06.45,2.17.72,3.34l.13.55.07.27c.23,1,.5,2,.78,3l.07.28.19.67,0,.11A11.68,11.68,0,0,0-153.89,160c.75,5.47,4.51,10.82,10.08,14.56.28,2.26.55,4.08.82,5.57l-.21,0-.8-.18-.68-.14-.11,0-.18,0-.4-.08-1.53-.29c-24.63-9.4-76.94-40.46-77.47-40.78a6.56,6.56,0,0,0-4.12-.87,6.25,6.25,0,0,0-1.52.37h0a12.72,12.72,0,0,0-1.62-3c-1.59-2.22-4-5.13-7.56-6.16a10.72,10.72,0,0,0-5.67-.89,9.14,9.14,0,0,0-4.79,2c-.37-.15-.74-.3-1.12-.43l-1.49-.66c-6-2.66-9.46-4.2-11.68-4.78a10.66,10.66,0,0,0-3.88-.23c-3.76.45-8.07,2.82-9.2,7.11a8,8,0,0,0,3.16,8.51,43.88,43.88,0,0,0,6.32,3.51,9.34,9.34,0,0,0,.57,5.82,9.12,9.12,0,0,0,2.28,9.58c1,.92,2.56,1.91,6.85,3.05a29.43,29.43,0,0,0,4.66,2.05c.42.15.94.32,1.47.47l.17,0,.1,0a24.13,24.13,0,0,0,7.87.83,6.56,6.56,0,0,0,1.38,1.78l.73.68a6.46,6.46,0,0,0,2.4,4c.52.42,49.87,39.27,69.82,55.81-4.08,29.44-5.26,65.83-5.31,67.42a6.52,6.52,0,0,0,2.86,5.61l0,.25-.06.55a1.5,1.5,0,0,0,0,.22c-2.74,24.51-6.14,67.16-7,132.27-2,1.14-5,2.93-9.46,5.75A6.51,6.51,0,0,0-191,447a6.53,6.53,0,0,0,6.92,4.29l15.67-1.88a6.51,6.51,0,0,0,4.72-2.95,6.52,6.52,0,0,0,.72-5.52,26.73,26.73,0,0,0-1.33-3.35l1.22-4.27,31.49-107.65,1.42,1.92a2.91,2.91,0,0,0,.26.33l56.34,97.43a34.63,34.63,0,0,0-.13,5.54,6.56,6.56,0,0,0,2.32,4.65,6.51,6.51,0,0,0,5,1.48l15-1.79a6.52,6.52,0,0,0,5.68-5.51,6.53,6.53,0,0,0-3.79-6.94c-.75-.33-6-2.67-10.09-4.26-5.63-17.18-20.35-62.83-30.7-101.41-.27-4.25-1.79-28.6-2.81-48.25,15.44,16.05,31,37.08,31.19,37.34a6.52,6.52,0,0,0,5.23,2.65,7.19,7.19,0,0,0,.59.51,13,13,0,0,0,.25,4.25,42.62,42.62,0,0,1,.71,6.47L-63.6,328a6.52,6.52,0,0,0-.39,9.16l23.53,26a6.52,6.52,0,0,0,4.69,2.15,5.8,5.8,0,0,0,.93-.05A6.56,6.56,0,0,0-31,363.41l37.84-38a6.52,6.52,0,0,0-.34-9.53l-25.07-21.8a6.54,6.54,0,0,0-5.06-1.56,6.47,6.47,0,0,0-3.67,1.71l-1.11,1c-.35-.31-.7-.61-1.06-.9a7.28,7.28,0,0,0-.88-.67l-.25-.16a6.52,6.52,0,0,0-.62-3.62,6.47,6.47,0,0,0-1-4.36c-1.7-2.62-41.85-64.23-56.48-80.15a35.91,35.91,0,0,0-4.8-4.52l-1.33-1.06c-.49-.38-.91-.71-1.34-1l-.13-.1-.74-.56a6.55,6.55,0,0,0-2.91-2.49l-1.4-.61-.65-.45-.91-2.49A6.52,6.52,0,0,0-104.2,190l-.08-.66c3.81-1.77,5.54-3.49,6.28-5.93.24-.77.62-2,.39-12.11,4.45-4.46,6.86-10,6.55-15.42a13.07,13.07,0,0,0-2.12-6.58l.78-2.12c5-13.59,10.15-27.64,9.16-37.11a16.74,16.74,0,0,0-1.22-5c-3.13-7.38-8.72-11.59-15.6-11.92a9.3,9.3,0,0,0-1.49-2.83c-1.2-1.55-4-4-9.09-3.43h0Z"/></g><circle class="cls-5" cx="145" cy="145" r="145"/><g class="cls-6"><path class="cls-7" d="M9.18,284.56a197,197,0,0,0,113.56,50.08L146.2,133.07-52,176.58A197,197,0,0,0,9.18,284.56Z"/><path class="cls-8" d="M147,132.17l-.11,1L123.36,335.41l-.7-.07A198,198,0,0,1-52.7,176.73l-.14-.69.69-.15Zm-24.88,201.7L145.39,134-51.18,177.12A196.6,196.6,0,0,0,122.13,333.87Z"/><path class="cls-9" d="M-37.55,52A204.39,204.39,0,0,0-52,176.58L146.2,133.07,47.13-41.65A208.14,208.14,0,0,0-37.55,52Z"/><path class="cls-8" d="M47.4-42.61l.35.6,99.54,175.56L-52.57,177.42l-.13-.69a206.51,206.51,0,0,1,14.51-125,208.78,208.78,0,0,1,85-94Zm97.71,175.2L46.87-40.68a207.36,207.36,0,0,0-83.78,93h0A205.15,205.15,0,0,0-51.46,175.74Z"/><path class="cls-10" d="M146.2,133.07l137-151.5A197.09,197.09,0,0,0,169.66-68.51,204.57,204.57,0,0,0,47.13-41.65Z"/><path class="cls-8" d="M283.7-19l.51.47L146.06,134.26,46.18-41.9l.61-.36a206.66,206.66,0,0,1,123-26.95A197.15,197.15,0,0,1,283.7-19ZM146.34,131.87,282.23-18.37A195.76,195.76,0,0,0,169.57-67.8,205.14,205.14,0,0,0,48.09-41.4Z"/><path class="cls-11" d="M122.74,334.64a204.43,204.43,0,0,0,122.53-26.86A208.14,208.14,0,0,0,330,214.15L146.2,133.07Z"/><path class="cls-8" d="M330.89,213.78l-.3.65a208.78,208.78,0,0,1-85,94,206.51,206.51,0,0,1-123,26.95l-.7-.07.09-.7L145.61,132l.88.39ZM123.52,334A206.17,206.17,0,0,0,329,214.51L146.79,134.1Z"/><path class="cls-12" d="M330,214.15a204.37,204.37,0,0,0,14.46-124.6,197,197,0,0,0-61.19-108l-137,151.5Z"/><path class="cls-8" d="M283.18-19.42l.52.46A197.17,197.17,0,0,1,345.1,89.4a206.5,206.5,0,0,1-14.51,125l-.29.64-.64-.28L145,133.32Zm46.43,232.64A205.14,205.14,0,0,0,343.72,89.7,195.73,195.73,0,0,0,283.26-17.43L147.37,132.81Z"/><path class="cls-4" d="M53.44,119.88l-2.53,1s21,44.86,26,45.62c3.13.47,22.67-9.4,36.94-16.9a20,20,0,0,0,3.84,5.32L96.53,203.55s1,.66,2.75,1.64c-.49,1.52-1,3-1.36,4.54a.5.5,0,0,0,.12.43c-3.38,15.24-2.36,32.93-.06,48.21h0c0,.09,0,.17,0,.26.18,1.15.36,2.29.55,3.42.05.34.11.66.17,1,.15.87.3,1.74.45,2.58.08.41.15.8.23,1.2.14.76.28,1.51.43,2.25.08.42.17.83.25,1.24l.42,2.07.27,1.23c.14.65.28,1.29.42,1.91l.27,1.2c.14.6.28,1.19.41,1.77.09.39.18.76.28,1.14.13.56.26,1.11.4,1.64.09.36.17.71.26,1.06.13.52.26,1,.39,1.52.08.32.17.64.25.95.12.48.24.94.37,1.39s.16.59.23.87l.34,1.23c.07.26.15.52.22.77s.2.72.3,1.07.13.46.2.67.18.63.27.93l.15.5c.09.29.16.54.24.78s.08.28.12.4.12.38.17.56.06.2.09.28.09.27.12.38l0,.14,0,.17.08,0,0,0,.18.08a.38.38,0,0,1,.13.06l.24.09.19.09.3.12.28.11.34.14.36.14.38.15.36.14A110.57,110.57,0,0,0,112.53,309s-2.13,11.37,1.1,29c3.15,20.19,11.45,57.84,9.25,65-2.64,8.56-4.6,9.48-5.47,11.13a21.36,21.36,0,0,1-3.62,4.45h0c-.44.31-15.07,11.85-16.07,14.47-.37,1,.38,2.73,3.31,2.93s12.59-2.71,15.36-3.7S128.73,419,130.78,418s2.36,11.66,2.82,11.8l1.61-1.11s2.83-13,.19-20.25c-.14-.47-3.9-7.48-.07-34.08,2.59-18,1.07-39,1.07-39h0c0-2-.11-4-.21-6-.43-9.23-.91-18.68-1.43-28h.44l.93,0h1.36c2.34,3.75,4.16,7.57,4.63,10.26.67,3.87,7.44,34.57,14.4,50.49h0l.12.29.59,1.29c2,4.28,7.56,16.53,12.46,26.8,2.78,5.82,4.53,13.19,6.08,19.81a11.83,11.83,0,0,0,0,8.72c1.94,4.45,4.25,10,4.5,14s3.7,11.26,10,13.07,9.86-1.67,9.25-6.74-6.47-12-6.47-12l-.09-.1a53.08,53.08,0,0,0-4.12-7.93c-1.89-3.14-4.48-8.18-6.24-19.14-1.25-7.8-7.31-46-7.31-46h0c-.36-7.62-.82-14.49-1.87-19.62-3.52-17.22-15.22-36.16-15.22-36.16s0-.17-.05-.46c.76-.28,1.51-.58,2.27-.89L169.94,254a76.48,76.48,0,0,0,1.11-17.7,6.25,6.25,0,0,0,1.39-.41c.69-.3,4.39-3.89,8.89-8.28a9.27,9.27,0,0,0,2.41,1.34L185,227.5a11.32,11.32,0,0,0,1.79.93s38.76-38.25,38.76-44.52c1.41-6.26-26.39-48.91-29.08-51.52s-8.12-5.92-13.5-8.78c4-19.2,13.31-63.33,15-70.83a7.54,7.54,0,0,0-2.23-7.7h0l0,0-.12-.1c-.24-.21-.49-.4-.74-.59l-.23-.16c-.28-.19-.56-.37-.85-.54l-.24-.13c-.25-.13-.5-.26-.76-.38l-.19-.09-.87-.36-.26-.09-.82-.28-.11,0-.7-.19-.19,0-.65-.15-.11,0-.48-.09h0l-.37-.06h0l-.14,0h0s1.54-10.37-4.85-13.65-48.79,3.65-60.48,8.88h0l-.33.16-.53.25-.49.27-.4.23-.43.31-.24.18a2.09,2.09,0,0,0-.41.46h0a2.35,2.35,0,0,0-.25.6l0,.15a3.93,3.93,0,0,0-.11.63,1.77,1.77,0,0,0,0,.23c0,.24,0,.48,0,.75,0,.09,0,.18,0,.27,0,.28,0,.57,0,.89v0h0c.9,10.61,11.28,40.22,9.14,73.05-2,.72-3.81,1.45-5.42,2.14-10.27,2.54-37,22.44-37,22.44L69.72,113.44l-1.61.64-2.34-4.91-3.49,1.45c-.9-3.21-.76-5.74,1-7C70.47,98.45,65.78,94,65.78,94s2.94-6.37.8-9S63.63,88.33,61,86.9s-2.61,3.86-6,2.75-3.76,1.43-4,6c-.09,1.8,1.4,8.93,3.84,18.07l-3.84,1.61ZM169.35,224.56a41.72,41.72,0,0,0-5.73-13.23h0l-.23-.33c-.38-.54-.77-1.08-1.19-1.6-.16-.21-.32-.41-.49-.61-.38-.47-.78-.92-1.2-1.38l-.17-.19c.5-.24,1-.46,1.48-.72l-6.23-21.07.06-.11.93-1.41v0c2.13-3.26,5-7.75,8.11-12.54h0c5.48-8.55,11.41-18,14.15-23.06l24.37,34L176,218s.39.59,1.05,1.48L175.76,221s.51.9,1.37,2.1a11.67,11.67,0,0,1-3,2.92C173,226.47,171.28,225.74,169.35,224.56ZM109.78,425.21l.4.15h0A.6.6,0,0,1,109.78,425.21Z"/><path class="cls-4" d="M188.45,452.26c-9.45-2.71-14.24-12.64-14.62-18.82-.2-3.15-2.85-9.21-4-11.8a17.7,17.7,0,0,1-.71-11.53c-1.31-5.55-2.94-12-5.23-16.81-5-10.54-10.84-23.25-12.48-26.84l-.63-1.4-.09-.2a3.35,3.35,0,0,1-.15-.35,189.4,189.4,0,0,1-7.42-21.83,200.3,200.3,0,0,1-1.49,32.61c-3.26,22.7-.7,29.86-.39,30.61l.14.37h0c3.18,8.73.39,22.28.06,23.8a6.39,6.39,0,0,1-2.63,3.9l-1.6,1.11a6.42,6.42,0,0,1-5.48.85,6.19,6.19,0,0,1-4.47-5.1c-4.13,4.51-6.37,6.58-8.74,7.42-.13.05-12.77,4.38-18,4.06a9.91,9.91,0,0,1-8-4.38,8.14,8.14,0,0,1-.8-7.22c1.77-4.61,14.77-14.68,17.79-17a13.85,13.85,0,0,0,2.21-2.63,14,14,0,0,1,1.41-2.11c.78-1,2-2.55,3.6-7.86,1-4.43-3.28-27.68-5.82-41.57-1.4-7.59-2.71-14.75-3.59-20.43-2.73-14.83-1.86-25.62-1.35-29.62-.94-3.11-1.69-5.95-2.32-8.8l-.15-.07a6.4,6.4,0,0,1-3.19-3.66l-.54-1.69s-.06-.2-.06-.21l6.11-1.86-6.18,1.64-.33-1.1-.07-.23-2-7.12-4.37-19.65c-.16-.87-.32-1.75-.47-2.64l-.18-1c-.19-1.15-.38-2.33-.56-3.53a2.17,2.17,0,0,0,0-.25c-2.87-19.12-2.92-35.67-.14-49.23a6.8,6.8,0,0,1,.23-2.05,1.33,1.33,0,0,0,0-.19A6.4,6.4,0,0,1,90.67,201l18.09-41.54C81.24,173.61,78.34,173.17,76,172.82c-3.35-.5-8.41-1.26-30.86-49.23a6.39,6.39,0,0,1-.15-5.07c.05-.13.11-.27.17-.4a6.38,6.38,0,0,1,2.07-8c-1.5-6-2.82-12.17-2.68-14.79.19-3.69.43-8.29,4.23-10.91A8.33,8.33,0,0,1,54.17,83a7.8,7.8,0,0,1,5.91-2.77,7.66,7.66,0,0,1,5.43-2.34h0a7.65,7.65,0,0,1,6,3.06c3,3.75,2.34,8.87,1.29,12.38a11.05,11.05,0,0,1,.81,5,12.21,12.21,0,0,1-2.82,6.89,6.42,6.42,0,0,1,.71,1.16l.51,1.07a6.38,6.38,0,0,1,3.13,2.62l12.58,20.63c8.81-6.27,24.5-16.85,33.12-19.26l1.32-.55c.71-21.12-3.69-40.76-6.67-54a123.05,123.05,0,0,1-2.67-14.06c0-.45,0-.85-.06-1.16,0-.11,0-.36,0-.46,0-.42,0-.8,0-1.16,0-.16,0-.38,0-.52a9.39,9.39,0,0,1,.2-1.24,6.58,6.58,0,0,1,.15-.67,8.5,8.5,0,0,1,1-2.29l.22-.33a9.08,9.08,0,0,1,1.37-1.5,8,8,0,0,1,.64-.5,8.31,8.31,0,0,1,.81-.57l.56-.33L118,32c.22-.13.44-.25.7-.38l.71-.35.37-.18.43-.17c11.18-4.74,55.86-13.57,65.63-8.57,6.3,3.23,8,9.71,8.41,14.5.3.12.59.24.87.37l.29.13,1.15.58.31.17c.44.25.88.53,1.38.87l.29.21c.42.3.82.62,1.09.86l.17.14.23.21a13.9,13.9,0,0,1,4.12,13.76c-1.56,7.08-10.14,47.89-14,66.14a54.85,54.85,0,0,1,10.72,7.51c1.7,1.65,30.91,43.27,31,56.1h0c0,2.45,0,8.94-40.66,49.07a6.45,6.45,0,0,1-5,1.82,6.36,6.36,0,0,1-3.66.44c-2.49,2.41-4,3.86-5.1,4.78a81,81,0,0,1-1.36,15.36l-9.58,43.05a6.53,6.53,0,0,1-.37,1.16c3.82,6.92,10.73,20.61,13.4,33.69,1.15,5.64,1.64,13,2,20.25.61,3.84,6.07,38.32,7.26,45.68,1.51,9.48,3.58,13.84,5.4,16.85a65.21,65.21,0,0,1,4.18,7.89c1.89,2.35,6.65,8.77,7.36,14.66a12.72,12.72,0,0,1-4.1,11.48,12.57,12.57,0,0,1-8.3,2.91A17.86,17.86,0,0,1,188.45,452.26Zm4.67-11.5Zm-6.19-11.2a32.63,32.63,0,0,0-1.68-3.55,29.15,29.15,0,0,1,1.33,6.64c.11,1.71,2.13,6.38,5.4,7.32a6.39,6.39,0,0,0,1.15.23.43.43,0,0,0,0-.05c-.22-1.81-2.71-5.87-4.86-8.47A6.33,6.33,0,0,1,186.93,429.56Zm-83.66,6.55Zm26.14-25.42a22.73,22.73,0,0,1-1.12-3.7,35.82,35.82,0,0,1-3.55,7.75,11.79,11.79,0,0,1,3.39-2.54,6.68,6.68,0,0,1,1.57-.5A8.63,8.63,0,0,0,129.41,410.69Zm39.44-56.22c-.31-6.79-.74-13.74-1.74-18.63-3.25-15.87-14.28-33.91-14.4-34.09a6.54,6.54,0,0,1-.91-2.65l-.05-.48a6.4,6.4,0,0,1,3.09-6.18l8.84-39.75a71,71,0,0,0,1-16.07,6.34,6.34,0,0,1,2.9-5.7c-.62-.33-1.14-.65-1.54-.89a6.41,6.41,0,0,1-2.88-3.91,35.3,35.3,0,0,0-4.83-11.21l0-.06-.15-.2c-.3-.44-.62-.88-.95-1.3l-.4-.49c-.31-.38-.63-.75-.94-1.09l-.28-.3a6.45,6.45,0,0,1-1-7l-5.1-17.25a6.67,6.67,0,0,1,.84-5.41l.91-1.39,0,0c2.12-3.23,5-7.68,8-12.42a.35.35,0,0,1,0-.08c6.9-10.78,11.71-18.61,13.92-22.66a6.39,6.39,0,0,1,10.81-.67l24.37,34a6.41,6.41,0,0,1-.12,7.6l-24.91,32.62a6.61,6.61,0,0,1-.19,2.3c0,.08.05.15.07.22a6.42,6.42,0,0,1,1.81-.23c15.24-15.22,31.56-33,34-38-1.73-7.5-23.32-41.73-27.22-46.28-1.2-1.13-4.29-3.55-11.95-7.62a6.39,6.39,0,0,1-3.25-7c3.94-18.78,13.29-63.28,15-70.9.22-1,0-1.27-.22-1.53l-.13-.11-.36-.28a5.89,5.89,0,0,0-.54-.32c-.13-.07-.25-.14-.53-.27s-.33-.14-.67-.26l-.38-.14-.25-.07-1.37-.34h-.14l-.25,0a6.41,6.41,0,0,1-5.37-7.22c.31-2.32-.05-6.08-1.3-7-6.32-1.63-42.48,3.68-54.49,8.68.32,2.64,1.26,6.83,2.33,11.62,3.32,14.82,8.34,37.22,6.74,61.7a6.39,6.39,0,0,1-4.2,5.6c-1.67.6-3.38,1.27-5.07,2a7,7,0,0,1-1,.32c-6.57,1.63-24.82,14-34.78,21.37a6.4,6.4,0,0,1-9.27-1.8L66.38,120.24A6.39,6.39,0,0,1,62.43,117a6.08,6.08,0,0,1-2-.27,6.36,6.36,0,0,1-.87,1.25,6.39,6.39,0,0,1-.08,4,7.1,7.1,0,0,1-.46,1c7.26,15.15,15.73,31.21,19.7,36.51,3.34-1.22,11.73-4.85,32.19-15.6a6.39,6.39,0,0,1,8.73,2.89,14.19,14.19,0,0,0,2.67,3.63,6.4,6.4,0,0,1,1.28,7L104.43,201.4a6.38,6.38,0,0,1,.93,5.75c-.32,1-.64,2-.93,3a6.39,6.39,0,0,1-.15,1.37c-2.72,12.26-2.71,27.69,0,45.89l0,.23c.17,1.12.35,2.23.53,3.33l.17,1c.14.85.29,1.69.44,2.53l1.3,6.57,4.82,19.1a6.42,6.42,0,0,1,4,4.78,103.1,103.1,0,0,0,3.08,12.18,6.47,6.47,0,0,1,.19,3.06c0,.1-1.84,10.62,1.13,26.82.88,5.68,2.18,12.76,3.56,20.27,1.87,10.19,3.35,18.5,4.39,25.23.27-2.76.63-5.77,1.1-9,2.29-15.88,1.23-34.51,1.05-37.28,0-.22,0-.43-.05-.65-.05-1.94-.11-3.89-.2-5.86-.43-9.22-.92-18.65-1.43-28a6.49,6.49,0,0,1,6.79-6.73l2.32,0a6.38,6.38,0,0,1,5.42,3c2.1,3.37,4.76,8.28,5.5,12.56s7.43,34.07,14,49a1,1,0,0,1,.07.15l0,.11c.18.4.35.79.56,1.23,1.43,3.14,6,13,10.39,22.44-1-6.2-2-12.83-2.88-18.13l-1.61-10.13Q168.88,354.89,168.85,354.47Zm-12.36,7.7h0Zm-49.9-67.63-.3.09.29-.08ZM179.38,160q-3.66,6-9.25,14.71l0,.08c-2.79,4.36-5.46,8.47-7.53,11.64l5.4,18.24a6.43,6.43,0,0,1,.26,2.07l.37.53c.08.11.28.38.35.49l.18.27a44.16,44.16,0,0,1,2.75,4.81l23.41-30.65Zm39.83,23.6Zm.11-.88,0-.21h0ZM59.53,95.32a8.35,8.35,0,0,1-2.22.76c.07.6.27,1.86.66,3.77a10.45,10.45,0,0,1,1.62-1.46,9.52,9.52,0,0,0,.93-.75A6.35,6.35,0,0,1,59.53,95.32ZM61,97.08Z"/><g id="_Grupo_" data-name="&lt;Grupo&gt;"><path class="cls-13" d="M65.27,119.82c-4.14-7.3-6.41-13.86-3.1-16.23C69.32,98.45,64.63,94,64.63,94s3-6.37.81-9-3,3.34-5.63,1.91-2.62,3.86-6,2.75-3.77,1.43-4,6c-.12,2.29,2.33,13.24,6.06,26C58.79,120.6,62.11,120.38,65.27,119.82Z"/></g><polygon class="cls-14" points="54.28 123.42 49.76 115.37 64.63 109.17 68.01 116.29 54.28 123.42"/><path class="cls-15" d="M181.79,28.05c-7.28-3.74-60,5.57-63.33,10.74s13.3,43.32,8,84.46,53.46,9.29,53.46,9.29,14.71-70.13,16.84-79.76S186.65,41.7,186.65,41.7,188.19,31.33,181.79,28.05Z"/><g id="_Grupo_2" data-name="&lt;Grupo&gt;"><g id="_Grupo_3" data-name="&lt;Grupo&gt;"><path class="cls-16" d="M119,341c-2,.68-4.54-3.81-6.47-3-3.23-17.6-1.1-29-1.1-29-5.17-16.53-3.62-21.18-8.79-46.51-2.14-10.47-3.83-20.39-5.09-28.43a18.1,18.1,0,0,1,16.14-20.82l14.27-1.39s4.56,62.7,7.12,117.51q.17,3.58.24,7.08C129.67,337.13,124.35,339.15,119,341Z"/></g></g><g id="_Grupo_4" data-name="&lt;Grupo&gt;"><g id="_Grupo_5" data-name="&lt;Grupo&gt;"><path class="cls-13" d="M116.19,202.57s17.43-25,32.62,10.12c14.77,34.16,6.64,70.76,6.64,70.76.65,6.71,1.56,14.95,1.56,14.95s11.69,18.94,15.21,36.16c1.54,7.51,1.83,18.73,2.34,30.61a30.85,30.85,0,0,0-12.85,5.35c-.86-2.34-4.32-4-5.24-5.94-7.33-15-14.8-48.83-15.51-52.9s-4.49-10.76-8.53-15.82S116.19,202.57,116.19,202.57Z"/></g></g><g id="_Grupo_6" data-name="&lt;Grupo&gt;"><g id="_Grupo_7" data-name="&lt;Grupo&gt;"><path class="cls-17" d="M202.07,182.32l-27.25-38-9.36-28.52s22.83,9.82,29.85,16.64c2.69,2.61,30.49,45.26,29.08,51.52C219.75,188.26,207.56,179.17,202.07,182.32Z"/></g></g><g id="_Grupo_8" data-name="&lt;Grupo&gt;"><g id="_Grupo_9" data-name="&lt;Grupo&gt;"><path class="cls-18" d="M99.22,202c-12.92,35.71,6,92.95,6,92.95s28.15,13.06,54,2.11L168.79,254s7.35-35.15-14.08-50.75S99.22,202,99.22,202Z"/></g></g><g id="_Grupo_10" data-name="&lt;Grupo&gt;" class="cls-19"><g id="_Grupo_11" data-name="&lt;Grupo&gt;"><path class="cls-20" d="M137.44,217.39a82.93,82.93,0,0,0,18.31-3.74c2.25-.73,4.5-1.49,6.73-2.32a32.49,32.49,0,0,0-7.77-8.09C133.27,187.64,99.22,202,99.22,202c-1,2.62-1.76,5.2-2.45,7.74s22.42,7.21,24.69,7.47A79,79,0,0,0,137.44,217.39Z"/></g></g><g id="_Grupo_12" data-name="&lt;Grupo&gt;"><g id="_Grupo_13" data-name="&lt;Grupo&gt;"><path class="cls-17" d="M123.28,127.48s-21.5,12.24-6.72,27.44l-5.13,24.15,40.61,10s23-34.83,26.7-42.81Z"/></g></g><g id="_Grupo_14" data-name="&lt;Grupo&gt;"><g id="_Grupo_15" data-name="&lt;Grupo&gt;"><path class="cls-17" d="M117.2,153.46,95.38,203.55s30.8,20.95,65.3,2.95l-7.39-25Z"/></g></g><path class="cls-21" d="M138.92,159.59c-11.19-11.83-15.79-2.53-22.36-4.67L95.38,203.55s30.8,20.95,65.3,2.95l-6.24-21.07c2.47-3.78,6.53-10,10.65-16.49a56.86,56.86,0,0,1,4.09-8.64S151.56,172.93,138.92,159.59Z"/><path class="cls-22" d="M105.24,294.94s23.26,10.79,46.89,4.53c-5.86-2.23-11.66-4.52-16.57-8.36-7.34-5.75-11.89-14.48-14.25-23.5s-2.76-18.43-3.13-27.76v37.82A6,6,0,0,1,107,280.76l-.08-.14a117.81,117.81,0,0,1-10.06-22.25A246.38,246.38,0,0,0,105.24,294.94Z"/><path class="cls-17" d="M68.58,114.57,84.76,141.1s26.79-19.9,37.06-22.43a88.52,88.52,0,0,1,11.15-4c8.75-2.33,23.5-4.55,39.82,5.8a76.82,76.82,0,0,1,19.73,19.94s-31.55,17-50.93,13.71c-6.7-1.12-11.82-5.38-15.66-10.48-9.19,5-45.76,24.61-50.15,24-5-.75-26-45.61-26-45.61Z"/><g id="_Grupo_16" data-name="&lt;Grupo&gt;"><g id="_Grupo_17" data-name="&lt;Grupo&gt;"><path class="cls-13" d="M142.88,117.83a14.93,14.93,0,0,0,7.7,2.4c4.41.12,6-2.47,7.5-2.86L172.4,84.31,146.49,96l-.06,1.1Z"/></g></g><g id="_Grupo_18" data-name="&lt;Grupo&gt;"><g id="_Grupo_19" data-name="&lt;Grupo&gt;"><path class="cls-16" d="M150,107.54a25.69,25.69,0,0,0,7.95-2.32,54.15,54.15,0,0,0,7.06-3.86l7.39-17L146.49,96l-.06,1.1-1.88,11C146.37,107.86,148.19,107.75,150,107.54Z"/></g></g><path class="cls-13" d="M181.15,66.71s9.51-2,8.28,8.63-9,10.9-11.26,11.36c0,0-4.26,19-27.72,17.2s-19.62-20-19.45-32-1.17-33,14.19-34.51S182.51,36.82,181.15,66.71Z"/><path class="cls-23" d="M156.4,83.84c-2.65,3.12-6.37,4.73-9.77,4.23,1.34,4.49,2.63,7.57,6.42,6.38C156.15,93.47,157.45,88.58,156.4,83.84Z"/><path class="cls-24" d="M156.45,84.1a5.53,5.53,0,0,0-.86.88,22.89,22.89,0,0,0-4.28,9.71,4.94,4.94,0,0,0,1.74-.24C156.1,93.48,157.4,88.75,156.45,84.1Z"/><path class="cls-14" d="M147.85,88.15c.29,1,.52,1.81.64,2.06s4.77.91,8.26-3.72a13.16,13.16,0,0,0-.35-2.65A13.66,13.66,0,0,1,147.85,88.15Z"/><path class="cls-25" d="M154.33,42.25a26.11,26.11,0,0,0-13.48.63,18.83,18.83,0,0,0-7.4,4.66,43,43,0,0,0-2.2,12l.13,1.69a15.31,15.31,0,0,0,11-9.58,24.47,24.47,0,0,0,4.73,8,3.82,3.82,0,0,1,2.15-2,17.21,17.21,0,0,1,.18-5.36c.61,3.93,4.33,6.82,8.23,7.62s7.94-.09,11.75-1.23A9.06,9.06,0,0,0,174,67.76c1.58-5.81-.28-12.26-4.16-16.87A27,27,0,0,0,154.33,42.25Z"/><path class="cls-16" d="M147.7,83.54c0,.1-.23.22-.65.15a2.33,2.33,0,0,1-1.47-1,3.35,3.35,0,0,1-.54-1.14,4.23,4.23,0,0,1-.1-1.42,9.14,9.14,0,0,1,.9-2.84c1.64-3.56,3.29-6.29,3.7-6.11s-.61,3.22-2.25,6.78a11,11,0,0,0-.89,2.37,3,3,0,0,0,.15,1.78C147,83.11,147.72,83.32,147.7,83.54Z"/><path class="cls-26" d="M154.54,64.47c-.13-.16.33-.79,1.4-1.4a8.2,8.2,0,0,1,9.06.87A4.89,4.89,0,0,1,166,65c.18.29.22.49.15.57s-.28,0-.57-.11l-1.17-.59a11.54,11.54,0,0,0-3.91-1.15,11.18,11.18,0,0,0-4.09.39C155.33,64.4,154.67,64.66,154.54,64.47Z"/><path class="cls-26" d="M145.47,64.08c-.17.16-.77-.23-1.74-.7a11.36,11.36,0,0,0-3.95-1.16,11.58,11.58,0,0,0-4.05.39l-1.26.35c-.32.08-.53.1-.59,0s0-.28.26-.53a4.79,4.79,0,0,1,1.15-.87,8.18,8.18,0,0,1,9.06.87C145.28,63.24,145.62,63.94,145.47,64.08Z"/><path class="cls-27" d="M159,84.32a6.3,6.3,0,1,0,6.58-6A6.3,6.3,0,0,0,159,84.32Z"/><path class="cls-28" d="M130.5,83a6.29,6.29,0,1,0,6.57-6A6.3,6.3,0,0,0,130.5,83Z"/><path class="cls-29" d="M156.76,72.1a3.15,3.15,0,1,0,3.29-3A3.15,3.15,0,0,0,156.76,72.1Z"/><path class="cls-29" d="M138.81,71.28a3.15,3.15,0,1,0,3.3-3A3.15,3.15,0,0,0,138.81,71.28Z"/><path class="cls-30" d="M186.37,71.47c.82,2.83-.34,5.81-1.48,8.52a4.54,4.54,0,0,1-1.44,2.15,1.58,1.58,0,0,1-2.27-.37c-.37-.76.17-1.62.59-2.35s.67-1.83,0-2.29c-.34-.21-.77-.2-1.12-.38-.75-.4-.75-1.48-.55-2.31a12.67,12.67,0,0,1,1.27-3.31c.56-1,1.45-2.06,2.61-2S186,70.3,186.37,71.47Z"/><path class="cls-14" d="M135.28,116.41,133.63,152l23.89-24.55s-8.52-6.84-11.58-8.25S135.28,116.41,135.28,116.41Z"/><path class="cls-31" d="M148.37,120.66a2.51,2.51,0,0,1-1,.14c-.73-.12-1.31-.79-1.76-1.72a72.65,72.65,0,0,0-10.31-2.67l-.46,9.85a3.19,3.19,0,0,0,.52.69c2.2,2.14,9.46-5.13,11-4,1.06.77,5,5.18,7.9,7.88l3.26-3.35S152.12,123.14,148.37,120.66Z"/><g id="_Grupo_20" data-name="&lt;Grupo&gt;"><g id="_Grupo_21" data-name="&lt;Grupo&gt;"><path class="cls-14" d="M161.71,109s-11.55,10-14.22,9.54-3.12-9.42-3.12-9.42-7.6,2.07-8.77,3.4-3.75,10.38-1.72,12.51,11.24-5.46,12.69-4.33,8.68,10.11,10,10S166.65,117.93,166,114A6.6,6.6,0,0,0,161.71,109Z"/></g></g><path class="cls-15" d="M180.49,42.27c-5-7.11-14.08-10-22.7-10.92-6.37-.67-13.18-.39-18.6,3-8.65,5.46-11.15,18.08-12.71,28.19,7.07-.54,13.2-5.43,15.88-15.12a32.8,32.8,0,0,0,5.94,11.94c.61-.26,1.22-.52,1.81-.81a24.52,24.52,0,0,1-1.78-11.41c1.17,3.88,4.21,15.53,22,11.68-.54,2.57-.3,7.7,4.52,9.41-.45,3.35-.45,6.16-.68,9.26.39.3.78.59,1.18.86,3.5-5,8-16.22,8-16.22C185,55.46,184.43,47.94,180.49,42.27Z"/><path class="cls-32" d="M149.25,56.08c-1.19-.13-2.38-.32-3.56-.53a35.65,35.65,0,0,1-3.33-8.11,26.67,26.67,0,0,1-2.8,6.65,58.85,58.85,0,0,1-21.47-11.74,6.22,6.22,0,0,1,.37-3.56,6.8,6.8,0,0,1,2.84-1.87,66.72,66.72,0,0,0,27,10.39A23.77,23.77,0,0,0,149.25,56.08Zm37.4-14.38h0s-9.54,5.11-26.42,6.12a59.46,59.46,0,0,1-11.85-.5c.63,2.11,1.81,6.23,5.32,9.11a59.32,59.32,0,0,0,8.54-.27c11.1-1.17,21.93-5.22,32.3-11.08C191.47,42.27,186.65,41.7,186.65,41.7Z"/><g id="_Grupo_22" data-name="&lt;Grupo&gt;"><g id="_Grupo_23" data-name="&lt;Grupo&gt;"><path class="cls-13" d="M184.36,222.17a46.72,46.72,0,0,1-4.19-4.36c-3.19,4.25-6.08,7.83-7.23,8.25-2.34.86-7-3.2-11.52-6s-9-3.85-10.67-3.63-11.1,5.33-10.25,6.61,9-3.2,10-3.41,5.77,1.28,5.77,1.28-10.46,2.37-14.94,5.24a21.92,21.92,0,0,0-3.48,2.66,25.82,25.82,0,0,0,1.38,3.3,8.12,8.12,0,0,0,2.31-.53c2.13-.85,6.4-3.63,12.59-3.2,0,0-4.69,2.62-6.62,3.76s-3.62,3.28-3,3.92,6.61-3.62,8.32-3.84,8.32-.42,10,1.28,4.91,3.84,8.38,2.35c.93-.4,7.33-6.79,13.8-13Z"/></g></g><path class="cls-14" d="M177.63,217.28l-3,3.76s3.54,6.3,8,7.9l4.06-4.7Z"/><path class="cls-17" d="M202.07,182.32,174.84,218s5.47,8.35,10.79,10.45c0,0,38.76-38.25,38.76-44.52l-18.62-22.75Z"/></g></g></g></svg>